<?xml version="1.0" encoding="UTF-8" standalone="no"?>
<!DOCTYPE svg PUBLIC "-//W3C//DTD SVG 1.0//EN" "http://www.w3.org/TR/2001/PR-SVG-20010719/DTD/svg10.dtd">
<svg width="30cm" height="26cm" viewBox="149 41 592 502" xmlns="http://www.w3.org/2000/svg" xmlns:xlink="http://www.w3.org/1999/xlink">
  <g>
    <rect style="fill: #ffffff" x="225.869" y="180" width="103" height="42"/>
    <rect style="fill: none; fill-opacity:0; stroke-width: 2; stroke: #000000" x="225.869" y="180" width="103" height="42"/>
    <text font-size="12.8" style="fill: #000000;text-anchor:middle;font-family:Droid Sans;font-style:normal;font-weight:normal" x="277.369" y="204.9">
      <tspan x="277.369" y="204.9">Main Power</tspan>
    </text>
  </g>
  <g>
    <rect style="fill: #ffffff" x="229.859" y="285" width="95.0187" height="39"/>
    <rect style="fill: none; fill-opacity:0; stroke-width: 2; stroke: #000000" x="229.859" y="285" width="95.0187" height="39"/>
    <text font-size="12.8" style="fill: #000000;text-anchor:middle;font-family:Droid Sans;font-style:normal;font-weight:normal" x="277.369" y="308.4">
      <tspan x="277.369" y="308.4">Transmitter</tspan>
    </text>
  </g>
  <g>
    <rect style="fill: #ffffff" x="238.631" y="402" width="77.475" height="38"/>
    <rect style="fill: none; fill-opacity:0; stroke-width: 2; stroke: #000000" x="238.631" y="402" width="77.475" height="38"/>
    <text font-size="12.8" style="fill: #000000;text-anchor:middle;font-family:Droid Sans;font-style:normal;font-weight:normal" x="277.369" y="424.9">
      <tspan x="277.369" y="424.9">Receiver</tspan>
    </text>
  </g>
  <g>
    <rect style="fill: #ffffff" x="393.287" y="161" width="145.425" height="38"/>
    <rect style="fill: none; fill-opacity:0; stroke-width: 2; stroke: #000000" x="393.287" y="161" width="145.425" height="38"/>
    <text font-size="12.8" style="fill: #000000;text-anchor:middle;font-family:Droid Sans;font-style:normal;font-weight:normal" x="466" y="183.9">
      <tspan x="466" y="183.9">energymon_app.py</tspan>
    </text>
  </g>
  <g>
    <path style="fill: #ffffff" d="M 432.175 247.5 C 445.705,238.125 452.47,235 466,235 C 479.53,235 486.295,238.125 499.825,247.5 L 499.825,297.5 C 486.295,306.875 479.53,310 466,310 C 452.47,310 445.705,306.875 432.175,297.5 L 432.175,247.5z"/>
    <path style="fill: none; fill-opacity:0; stroke-width: 2; stroke: #000000" d="M 432.175 247.5 C 445.705,238.125 452.47,235 466,235 C 479.53,235 486.295,238.125 499.825,247.5 L 499.825,297.5 C 486.295,306.875 479.53,310 466,310 C 452.47,310 445.705,306.875 432.175,297.5 L 432.175,247.5"/>
    <path style="fill: none; fill-opacity:0; stroke-width: 2; stroke: #000000" d="M 432.175 247.5 C 445.705,256.875 452.47,260 466,260 C 479.53,260 486.295,256.875 499.825,247.5"/>
    <text font-size="12.8" style="fill: #000000;text-anchor:middle;font-family:Droid Sans;font-style:normal;font-weight:normal" x="466" y="282.75">
      <tspan x="466" y="282.75">MongoDB</tspan>
    </text>
  </g>
  <g>
    <rect style="fill: #ffffff" x="398.762" y="359.5" width="134.475" height="182"/>
    <rect style="fill: none; fill-opacity:0; stroke-width: 2; stroke: #000000" x="398.762" y="359.5" width="134.475" height="182"/>
    <text font-size="12.8" style="fill: #000000;text-anchor:middle;font-family:Droid Sans;font-style:normal;font-weight:normal" x="466" y="390.4">
      <tspan x="466" y="390.4">envir_collector.py</tspan>
      <tspan x="466" y="406.4"></tspan>
      <tspan x="466" y="422.4"></tspan>
      <tspan x="466" y="438.4"></tspan>
      <tspan x="466" y="454.4"></tspan>
      <tspan x="466" y="470.4"></tspan>
      <tspan x="466" y="486.4"></tspan>
      <tspan x="466" y="502.4"></tspan>
      <tspan x="466" y="518.4"></tspan>
    </text>
  </g>
  <text font-size="12.7998" style="fill: #000000;text-anchor:start;font-family:sans-serif;font-style:normal;font-weight:normal" x="466" y="450.5">
    <tspan x="466" y="450.5"></tspan>
  </text>
  <g>
    <ellipse style="fill: #ffffff" cx="466" cy="421" rx="47.8629" ry="23.9314"/>
    <ellipse style="fill: none; fill-opacity:0; stroke-width: 2; stroke: #000000" cx="466" cy="421" rx="47.8629" ry="23.9314"/>
    <text font-size="12.8" style="fill: #000000;text-anchor:middle;font-family:Droid Sans;font-style:normal;font-weight:normal" x="466" y="424.9">
      <tspan x="466" y="424.9">Collector</tspan>
    </text>
  </g>
  <g>
    <ellipse style="fill: #ffffff" cx="466" cy="503.231" rx="47.8629" ry="23.9314"/>
    <ellipse style="fill: none; fill-opacity:0; stroke-width: 2; stroke: #000000" cx="466" cy="503.231" rx="47.8629" ry="23.9314"/>
    <text font-size="12.8" style="fill: #000000;text-anchor:middle;font-family:Droid Sans;font-style:normal;font-weight:normal" x="466" y="507.131">
      <tspan x="466" y="507.131">Writer</tspan>
    </text>
  </g>
  <g>
    <rect style="fill: #d8e5e5" x="433.95" y="443" width="64.1" height="38"/>
    <rect style="fill: none; fill-opacity:0; stroke-width: 2; stroke: #000000" x="433.95" y="443" width="64.1" height="38"/>
    <text font-size="12.8" style="fill: #000000;text-anchor:middle;font-family:Droid Sans;font-style:normal;font-weight:normal" x="466" y="465.9">
      <tspan x="466" y="465.9">Queue</tspan>
    </text>
  </g>
  <g>
    <line style="fill: none; fill-opacity:0; stroke-width: 2; stroke: #000000" x1="277.369" y1="222" x2="277.369" y2="275.264"/>
    <polygon style="fill: #000000" points="277.369,282.764 272.369,272.764 277.369,275.264 282.369,272.764 "/>
    <polygon style="fill: none; fill-opacity:0; stroke-width: 2; stroke: #000000" points="277.369,282.764 272.369,272.764 277.369,275.264 282.369,272.764 "/>
  </g>
  <g>
    <line style="fill: none; fill-opacity:0; stroke-width: 2; stroke: #000000" x1="277.369" y1="324" x2="277.369" y2="392.264"/>
    <polygon style="fill: #000000" points="277.369,399.764 272.369,389.764 277.369,392.264 282.369,389.764 "/>
    <polygon style="fill: none; fill-opacity:0; stroke-width: 2; stroke: #000000" points="277.369,399.764 272.369,389.764 277.369,392.264 282.369,389.764 "/>
  </g>
  <g>
    <line style="fill: none; fill-opacity:0; stroke-width: 2; stroke: #000000" x1="316.106" y1="421" x2="408.401" y2="421"/>
    <polygon style="fill: #000000" points="415.901,421 405.901,426 408.401,421 405.901,416 "/>
    <polygon style="fill: none; fill-opacity:0; stroke-width: 2; stroke: #000000" points="415.901,421 405.901,426 408.401,421 405.901,416 "/>
  </g>
  <g>
    <polyline style="fill: none; fill-opacity:0; stroke-width: 2; stroke: #000000" points="513.863,503.231 563,503.231 563,281.875 509.561,281.875 "/>
    <polygon style="fill: #000000" points="502.061,281.875 512.061,276.875 509.561,281.875 512.061,286.875 "/>
    <polygon style="fill: none; fill-opacity:0; stroke-width: 2; stroke: #000000" points="502.061,281.875 512.061,276.875 509.561,281.875 512.061,286.875 "/>
  </g>
  <g>
    <line style="fill: none; fill-opacity:0; stroke-width: 2; stroke: #000000" x1="466" y1="208.736" x2="466" y2="235"/>
    <polygon style="fill: #000000" points="466,201.236 471,211.236 466,208.736 461,211.236 "/>
    <polygon style="fill: none; fill-opacity:0; stroke-width: 2; stroke: #000000" points="466,201.236 471,211.236 466,208.736 461,211.236 "/>
  </g>
  <g>
    <rect style="fill: #ffffff" x="578.713" y="247" width="160.575" height="38"/>
    <rect style="fill: none; fill-opacity:0; stroke-width: 2; stroke: #000000" x="578.713" y="247" width="160.575" height="38"/>
    <text font-size="12.8" style="fill: #000000;text-anchor:middle;font-family:Droid Sans;font-style:normal;font-weight:normal" x="659" y="269.9">
      <tspan x="659" y="269.9">energymon_statsd.py</tspan>
    </text>
  </g>
  <text font-size="12.8" style="fill: #000000;text-anchor:start;font-family:Droid Sans;font-style:normal;font-weight:normal" x="328.122" y="440">
    <tspan x="328.122" y="440">Serial/USB</tspan>
  </text>
  <text font-size="12.8" style="fill: #000000;text-anchor:start;font-family:Droid Sans;font-style:normal;font-weight:normal" x="149" y="364">
    <tspan x="149" y="364">&lt;msg&gt;...&lt;/msg&gt;</tspan>
  </text>
  <text font-size="12.8" style="fill: #000000;text-anchor:start;font-family:Droid Sans;font-style:normal;font-weight:normal" x="158" y="250">
    <tspan x="158" y="250">ch1, ch2, ch3, ...</tspan>
  </text>
  <text font-size="12.8" style="fill: #000000;text-anchor:start;font-family:Droid Sans;font-style:normal;font-weight:normal" x="576" y="385">
    <tspan x="576" y="385">pymongo/BSON</tspan>
  </text>
  <g>
    <line style="fill: none; fill-opacity:0; stroke-width: 2; stroke: #000000" x1="578.713" y1="266" x2="509.561" y2="266.219"/>
    <polygon style="fill: #000000" points="502.061,266.243 512.045,261.211 509.561,266.219 512.077,271.211 "/>
    <polygon style="fill: none; fill-opacity:0; stroke-width: 2; stroke: #000000" points="502.061,266.243 512.045,261.211 509.561,266.219 512.077,271.211 "/>
  </g>
  <text font-size="12.8" style="fill: #000000;text-anchor:start;font-family:Droid Sans;font-style:normal;font-weight:normal" x="496" y="230">
    <tspan x="496" y="230">pymongo/BSON</tspan>
  </text>
  <text font-size="12.8" style="fill: #000000;text-anchor:start;font-family:Droid Sans;font-style:normal;font-weight:normal" x="476" y="132">
    <tspan x="476" y="132">HTTP/WSGI</tspan>
  </text>
  <image x="431" y="42" width="75" height="66.0377" xlink:href="file:///home/clinstid/Downloads/rgtaylor_csc_net_computer.svg"/>
  <g>
    <line style="fill: none; fill-opacity:0; stroke-width: 2; stroke: #000000" x1="467.482" y1="110.043" x2="466.283" y2="151.268"/>
    <polygon style="fill: #000000" points="466.065,158.765 461.358,148.624 466.283,151.268 471.354,148.914 "/>
    <polygon style="fill: none; fill-opacity:0; stroke-width: 2; stroke: #000000" points="466.065,158.765 461.358,148.624 466.283,151.268 471.354,148.914 "/>
  </g>
</svg>
